<svg width="1096" height="220" viewBox="0 0 1096 220" fill="none" xmlns="http://www.w3.org/2000/svg">
<path fill-rule="evenodd" clip-rule="evenodd" d="M43.0616 63.2705C51.412 63.155 68.5743 72.3545 56.9493 79.4365C50.1582 76.6138 53.5134 68.9523 40.7588 70.9932C14.6958 75.1637 -16.0391 140.33 34.3917 126.002C51.81 120.553 66.5868 109.695 83.3858 102.766C93.257 97.9873 105.559 95.5029 115.337 91.0781C126.246 86.1422 135.296 75.4275 148.41 74.7988C157.256 74.3757 161.801 79.9954 163.503 88.1231C183.771 89.2131 205.746 88.5625 225.025 81.2803C228.274 79.2821 241.323 68.1217 245.784 70.7607C253.506 75.329 262.624 78.8577 267.337 86.8945C285.656 89.7016 304.351 88.8369 322.332 84.3477C331.661 82.016 370.335 60.4557 376.665 76.5371C385.131 98.0456 360.687 120.503 342.855 129.608C309.625 139.497 304.639 112.667 322.562 89.1504C303.024 92.6279 287.375 96.8574 267.747 93.1631C257.816 139.555 181.696 145.025 218.297 89.2705C195.863 93.4576 185.84 96.1791 162.966 94.4316C147.411 136.664 81.266 144.695 108.374 99.4443C85.0166 107.871 66.7295 120.731 44.5079 129.712C-23.8526 157.342 -4.66818 73.1475 43.0616 63.2705ZM330.422 125.469C360.581 121.731 386.146 74.6465 361.047 77.9668C353.713 79.7439 342.364 84.0621 335.556 87.7207C323.734 94.0723 307.947 121.079 330.422 125.469ZM137.797 85.5908C127.817 91.0829 118.556 96.9325 112.502 106.985C110.198 110.811 104.358 120.995 111.91 122.672C116.042 123.589 121.366 122.887 125.382 121.777C140.318 115.134 148.783 108.858 155.544 93.3203C151.406 92.5035 137.993 86.1933 137.797 85.5908ZM242.391 78.6406C219.592 88.1964 200.589 130.916 233.474 121.491C248.166 114.703 256.802 107.909 260.881 91.5332C253.518 88.7427 247.375 86.0482 243.087 78.9199L242.391 78.6406Z" fill="black"/>
<path fill-rule="evenodd" clip-rule="evenodd" d="M772.298 0C775.25 0.391725 775.381 0.43638 776.992 2.56641C778.577 12.7255 750.494 38.4826 746.094 47.1006C737.017 64.8866 689.143 152.428 749.405 113.226C762.315 104.825 774.483 97.1738 786.923 88.5811C788.856 83.6617 792.472 72.4228 798.587 71.626C800.886 75.0198 798.482 79.5565 797.097 82.9355C808.282 77.3353 832.272 70.1616 833.648 90.6738C834.371 101.504 825.129 111.358 817.969 118.72C832.707 115.422 844.72 112.521 858.274 105.841C866.976 92.4324 874.964 81.8136 890.165 75.7998C899.782 71.9975 909.747 72.3351 915.366 81.2578C922.108 91.9689 906.48 100.435 911.053 112.757C921.533 125.42 961.299 94.6906 969.687 87.2959C972.623 84.7117 973.668 80.3539 976.534 78.8398C979.678 78.738 978.546 78.3635 980.898 80.0674C982.291 85.095 975.096 97.3547 972.448 103.779C980.009 96.8922 1011.8 67.5206 1024 78.957C1031.97 86.4301 1018.55 107.565 1025.96 115.939C1039.57 123.942 1078.34 104.039 1092.42 99.3965C1093.59 99.0129 1094.71 100.612 1095.45 101.408C1095.28 112.775 1042.11 124.071 1032.45 125.046C1030.79 125.03 1029.13 124.869 1027.5 124.56C1006.75 120.767 1022.67 90.635 1018.27 84.2754C1003.97 77.9926 966.378 124.229 959.443 125.033L958.215 123.833C957.605 116.868 963.607 105.459 966.63 98.7617C953.11 109.758 904.582 143.501 903.258 105.392C893.284 114.141 880.252 124.381 867.081 127.476C858.448 129.505 856.349 121.484 855.556 115.106C855.217 114.95 854.877 114.793 854.537 114.637C836.209 121.016 811.374 126.23 793.229 131.117C783.787 133.662 780.468 130.967 777.767 129.303C769.065 153.065 757.349 176.469 748.455 200.227C746.382 205.749 743.438 216.738 738.325 219.624C735.651 219.32 736.643 219.798 734.648 217.632C733.874 213.761 748.464 180.671 751.103 174.386L782.01 100.314C766.774 110.661 741.696 129.923 722.619 130.407C714.161 130.621 710.38 120.719 711.922 113.438C719.178 79.0413 745.25 22.1632 772.298 0ZM792.996 121.992C819.425 120.058 841.245 79.7945 813.501 84.0791C804.982 86.5936 798.945 89.4339 791.925 95.0879C788.144 104.23 783.187 115.481 779.999 124.631C784.973 123.198 787.769 122.208 792.996 121.992ZM897.918 80.6426C884.102 84.9411 863.466 102.287 863.352 117.572L864.372 119.489C867.534 120.376 868.083 119.971 871.55 118.659C881.289 113.981 908.274 97.3061 908.17 85.3135C905.818 80.861 902.83 80.5529 897.918 80.6426Z" fill="black"/>
<path fill-rule="evenodd" clip-rule="evenodd" d="M448.971 70.9551C463.026 73.0247 470.115 78.3903 470.845 92.8574C502.886 101.88 524.298 94.0405 550.596 75.5596C562.93 75.0398 570.213 74.3246 573.767 87.8184C597.791 90.4696 623.001 87.242 644.482 77.6924C650.319 75.0953 667.366 79.3679 673.264 82.0078C680.929 85.4376 680.066 96.4221 676.033 102.446C669.483 113.383 654.57 126.08 641.643 128.957C615.031 134.878 613.732 113.326 623.732 95.5928C625.231 93.4335 626.346 92.1587 626.974 89.5928C621.042 90.0342 613.907 91.9128 607.81 92.9863C595.065 95.2301 585.979 95.2093 573.331 94.4326C556.998 139.586 489.313 142.493 520.438 97.5762C500.107 101.958 489.708 104.663 469.528 99.0703C469.249 99.6815 468.96 100.289 468.662 100.891C461.698 114.959 447.964 125.335 433.443 130.521C410.993 138.443 400.701 118.783 411.348 99.9668C420.565 83.6764 431.397 76.4273 448.971 70.9551ZM444.528 79.4805C431.667 85.0903 421.317 94.68 415.809 107.788C409.46 122.897 418.772 126.293 431.97 123.579C446.075 117.239 456.081 111.055 462.812 96.2139C455.249 91.7342 451.159 87.871 446.535 80.0322L444.528 79.4805ZM645.467 83.9336C621.346 98.7186 614.429 135.581 648.105 118.853C656.477 113.838 675.954 99.8638 670.98 88.9551C664.02 83.2679 651.216 87.7617 645.78 84.1416L645.467 83.9336ZM548.058 85.5938C535.032 92.7896 524.71 99.9266 519.297 115.126C518.504 117.347 518.548 118.866 519.688 120.896C523.364 124.121 531.326 122.95 535.69 121.846C550.699 115.684 559.506 108.698 566.196 93.3799C563.458 92.6714 548.631 86.4226 548.058 85.5938ZM454.016 80.1562C456.9 84.1361 459.051 87.4331 463.969 88.7383C462.706 85.5334 461.913 82.8479 458.598 81.4209C457.139 80.782 455.595 80.3556 454.016 80.1562Z" fill="black"/>
</svg>
