<svg width="1068" height="179" viewBox="0 0 1068 179" fill="none" xmlns="http://www.w3.org/2000/svg">
<path fill-rule="evenodd" clip-rule="evenodd" d="M761.962 41.528C827.883 35.1833 796.802 104.842 760.346 109.061C760.744 123.193 762.543 145.665 763.897 159.925C764.533 163.563 765.936 169.649 764.546 172.937C761.534 180.909 750.641 179.623 749.71 170.702C745.853 133.725 748.222 95.664 743.471 58.7409C740.869 38.5455 747.775 44.8212 760.921 41.7751L761.962 41.528ZM774.411 85.6901C793.962 65.2355 790.178 53.5789 761.008 55.6589L757.904 56.3542C756.27 59.2454 759.845 89.7058 760.225 94.9724C766.305 91.9293 769.348 90.2515 774.411 85.6901Z" fill="black"/>
<path fill-rule="evenodd" clip-rule="evenodd" d="M138.113 52.05C156.145 51.4985 166.454 63.6763 168.814 80.3743C171.943 102.509 164.312 125.116 139.75 128.869C131.619 129.071 124.992 128.489 118.766 123.071C102.336 108.779 102.5 65.5612 124.313 55.9094C130.015 53.3873 132.111 52.4499 138.113 52.05ZM136.439 65.9983C133.405 67.1065 132.879 68.0909 130.747 69.2346C124.689 72.4829 122.309 75.7669 121.515 82.8352C119.907 97.1264 121.328 115.337 139.943 113.616C161.813 107.469 161.051 65.7032 136.439 65.9983Z" fill="black"/>
<path fill-rule="evenodd" clip-rule="evenodd" d="M226.625 52.0257C233.487 51.8053 238.811 51.8376 245.259 55.1605C263.72 64.6751 264.207 93.6916 255.99 110.181C251.394 119.402 244.595 124.35 234.996 127.442C216.208 128.599 205.079 121.656 201.504 102.148C199.236 89.767 200.674 72.4939 207.398 61.6175C209.94 57.5071 221.878 52.7121 226.625 52.0257ZM228.349 65.9573C225.279 67.4753 220.446 70.0547 217.442 71.2591C213.085 84.8695 209.783 116.538 232.793 112.313C252.484 103.667 253.147 65.266 228.349 65.9573Z" fill="black"/>
<path fill-rule="evenodd" clip-rule="evenodd" d="M854.378 43.4249C861.205 43.2547 868.828 43.9468 873.163 49.8809C874.222 57.0775 879.536 54.6784 879.977 57.6485C882.475 74.5916 884.692 95.1124 896.21 108.583C898.555 111.553 906.111 117.682 903.46 122.097C892.102 141.01 879.108 110.586 876.12 103.838C874.399 99.9254 873.101 95.437 871.809 91.3223C868.613 102.209 862.111 116.91 849.638 119.09C837.552 121.208 831.159 110.359 829.861 99.8516C827.565 81.2804 830.859 46.8323 854.378 43.4249ZM865.162 59.6924C863.38 56.5025 857.838 56.9436 854.624 57.3839C842.733 65.0402 839.947 88.8734 845.053 101.634C845.353 102.369 846.401 103.122 847.05 103.594C849.26 103.741 849.744 103.085 851.385 101.555C857.912 91.715 865.015 71.1836 865.162 59.6924Z" fill="black"/>
<path fill-rule="evenodd" clip-rule="evenodd" d="M591.859 47.6647C642.889 42.9941 641.352 105.137 611.998 119.496C580.752 131.57 570.778 97.1093 575.45 73.9343C576.105 70.681 578.364 62.7973 577.648 60.2819C575.23 51.7495 584.738 49.1 591.859 47.6647ZM593.463 61.1843C591.914 63.0169 591.467 66.5843 590.487 68.9489C585.313 81.4535 587.377 117.842 609.468 103.423C622.039 91.9357 622.565 67.9063 604.055 62.3239C600.572 61.2734 597.057 61.2504 593.463 61.1843Z" fill="black"/>
<path fill-rule="evenodd" clip-rule="evenodd" d="M323.348 55.6206C358.304 51.7479 364.469 86.1914 351.736 111.308C348.056 118.57 340.611 123.2 332.804 125.22C300.917 126.31 292.459 100.109 300.734 73.6929C303.608 64.5181 314.808 58.9864 323.348 55.6206ZM328.583 110.322C346.931 107.958 351.722 67.6913 326.849 69.604C303.424 78.9906 307.508 108.846 328.583 110.322Z" fill="black"/>
<path fill-rule="evenodd" clip-rule="evenodd" d="M507.691 50.8354C554.252 49.3638 548.343 114.259 517.513 121.283C509.065 121.558 502.13 121.803 495.507 116.09C482.171 104.585 483.007 85.1809 485.897 69.4594C486.65 65.3652 484.528 62.5213 488.218 58.4809C493.741 52.4319 499.901 51.4305 507.691 50.8354ZM510.267 64.8198C508.402 64.7451 506.533 64.7548 504.668 64.8491C501.155 66.4941 501.598 66.1505 500.183 69.9291C496.787 79.0029 496.293 89.89 500.414 98.7807C503.779 106.036 511.441 108.669 518.628 105.204C531.584 93.4778 531.596 65.8074 510.267 64.8198Z" fill="black"/>
<path fill-rule="evenodd" clip-rule="evenodd" d="M413.472 55.0254C438.414 53.6128 448.134 67.6582 446.902 91.334C446.103 106.697 438.411 118.625 423.956 124.864C392.037 130.21 388.682 97.6406 392.938 74.7324C393.947 69.3028 390.053 68.2806 393.257 63.9297C397.641 57.975 406.512 56.111 413.472 55.0254ZM419.617 68.9512C418.051 68.8342 415.22 68.9656 413.66 69.0703C412.208 69.4616 409.823 70.0317 408.48 70.502C407.153 74.5864 406.063 78.0348 405.342 82.2656C403.442 93.4218 405.7 116.096 422.632 109.055C432.258 101.076 437.268 83.4292 428.593 73.4658C426.311 70.8392 423.086 69.2169 419.617 68.9512Z" fill="black"/>
<path d="M971.132 44.5844C976.723 43.9659 982.668 44.0957 987.181 47.9318C998.184 57.2805 998.38 92.4494 999.243 106.569C999.556 111.615 1000.23 116.635 1000.52 121.681C1000.71 125.208 1000.76 130.97 997.902 133.535C996.176 135.09 993.151 135.501 990.916 135.164C986.593 134.509 984.934 127.381 984.37 123.879C982.515 112.264 985.16 67.1772 977.653 60.4547C976.539 59.4542 975.529 58.9374 973.986 59.2154C970.894 59.7707 968.034 63.6429 966.283 66.0175L965.787 66.6947C955.28 83.4424 956.872 97.3295 956.211 115.68C955.739 128.949 938.607 130.939 939.905 111.186C939.09 96.5702 939.942 81.5137 936.513 67.0957C934.786 59.8595 934.002 42.8791 946.046 54.9886C947.308 56.2592 948.893 65.4676 949.31 67.9609C954.545 57.1378 959.664 49.1748 971.132 44.5844Z" fill="black"/>
<path d="M39.6633 27.4043C47.2895 27.0351 61.5036 27.9487 64.6472 36.4272C64.6221 38.6211 64.5033 38.8532 63.2548 40.5597C57.7238 48.1223 50.8378 39.888 42.4021 41.4843C36.3568 42.6281 31.0188 48.7707 27.4986 53.6618C18.0091 67.0554 11.8377 83.8588 14.5876 100.336C17.278 116.458 25.9244 119.826 40.6289 117.615C47.5565 116.574 54.0702 115.913 60.9556 114.119C65.4719 112.937 72.004 111.357 75.7385 114.725C75.9307 114.854 76.123 114.982 76.3146 115.111C85.5874 129.776 62.4367 130.094 54.6703 131.38C32.3003 135.09 7.94836 136.903 1.78735 108.896C-2.50001 89.4063 0.980329 68.9682 11.6406 52.1102C18.8064 40.9852 26.1301 30.7285 39.6633 27.4043Z" fill="black"/>
<path d="M674.44 0C681.243 0.00306152 684.574 2.18104 684.451 9.41052C683.912 41.4855 686.141 73.0688 687.531 105.069C687.941 114.474 693.158 122.214 685.26 129.255C680.875 130.247 675.408 130.02 674.287 124.516C671.942 113.005 672.346 100.575 672.089 88.8491L671.379 32.9604C671.354 24.693 671.226 15.8685 671.434 7.58889C671.47 6.00792 673.662 1.62077 674.44 0Z" fill="black"/>
<path d="M1054.34 109.429C1070.83 108.412 1072.22 129.555 1058.88 135.047C1041.29 134.888 1040.45 116.923 1054.34 109.429Z" fill="black"/>
</svg>
