<svg width="1888" height="336" viewBox="0 0 1888 336" fill="none" xmlns="http://www.w3.org/2000/svg">
<path d="M113.999 93.446C38.7327 44.69 -63.2327 261.257 110.133 239.043" stroke="black" stroke-width="29.8462" stroke-miterlimit="10" stroke-linecap="round" stroke-linejoin="round"/>
<path d="M249.629 105.973C171.402 108.959 187.247 231.904 268.398 226.517C328.322 222.538 320.693 103.261 249.629 105.973Z" stroke="black" stroke-width="29.8462" stroke-miterlimit="10" stroke-linecap="round" stroke-linejoin="round"/>
<path d="M434.959 105.855C364.04 135.462 390.281 249.835 458.926 217.979C514.989 191.962 490.872 82.5136 434.959 105.855Z" stroke="black" stroke-width="29.8462" stroke-miterlimit="10" stroke-linecap="round" stroke-linejoin="round"/>
<path d="M606.104 108.848C568.688 139.875 528.627 221.592 606.795 222.292C715.1 223.263 648.691 73.532 606.104 108.848Z" stroke="black" stroke-width="29.8462" stroke-miterlimit="10" stroke-linecap="round" stroke-linejoin="round"/>
<path d="M795.42 112.465C727.292 84.7987 708.814 254.306 816.434 224.598C911.518 198.349 809.87 118.333 795.42 112.465Z" stroke="black" stroke-width="29.8462" stroke-miterlimit="10" stroke-linecap="round" stroke-linejoin="round"/>
<path d="M991.388 100.277C926.428 84.8856 889.818 220.668 987.008 227.478C1032.42 230.66 1061.75 140.997 1025.51 115.843C1020.15 112.122 1001.27 102.619 991.388 100.277Z" stroke="black" stroke-width="29.8462" stroke-miterlimit="10" stroke-linecap="round" stroke-linejoin="round"/>
<path d="M1156.07 115.496C1103.63 147.869 1070.95 221.373 1159.72 218.819C1247.46 216.294 1181.35 99.892 1156.07 115.496Z" stroke="black" stroke-width="29.8462" stroke-miterlimit="10" stroke-linecap="round" stroke-linejoin="round"/>
<path d="M1286.05 14.9258C1277.96 57.0458 1283.98 96.9588 1281.68 139.067C1281.19 148.142 1280.61 204.317 1283.18 190.952" stroke="black" stroke-width="29.8462" stroke-miterlimit="10" stroke-linecap="round" stroke-linejoin="round"/>
<path d="M1365.63 113.925C1363.38 160.858 1360.34 207.858 1359.18 254.865C1358.75 272.112 1358.73 322.827 1359.02 321.337" stroke="black" stroke-width="29.8462" stroke-miterlimit="10" stroke-linecap="round" stroke-linejoin="round"/>
<path d="M1370.69 111.458C1384.23 87.3429 1527.55 152.146 1380.14 193.537" stroke="black" stroke-width="29.8462" stroke-miterlimit="10" stroke-linecap="round" stroke-linejoin="round"/>
<path d="M1582.19 118.607C1537.57 73.286 1487.71 169.966 1528.62 205.592C1562.52 235.101 1586.38 157.668 1602.24 160.059C1623.97 163.335 1600.15 247.702 1603.42 225.972" stroke="black" stroke-width="29.8462" stroke-miterlimit="10" stroke-linecap="round" stroke-linejoin="round"/>
<path d="M1687.75 203.292C1687.97 173.942 1710.93 89.0798 1754.04 99.0098C1786.73 106.542 1783.51 228.949 1782.99 195.404" stroke="black" stroke-width="29.8462" stroke-miterlimit="10" stroke-linecap="round" stroke-linejoin="round"/>
<path d="M1872.48 198.786C1871.77 199.016 1871.07 199.246 1870.36 199.476" stroke="black" stroke-width="29.8462" stroke-miterlimit="10" stroke-linecap="round" stroke-linejoin="round"/>
</svg>
